<?xml version="1.0" encoding="UTF-8"?>
<svg id="Camada_2" data-name="Camada 2" xmlns="http://www.w3.org/2000/svg" viewBox="0 0 2057.19 2552.03">
  <defs>
    <style>
      .cls-1 {
        fill: #75b51a;
      }
    </style>
  </defs>
  <g id="Camada_1-2" data-name="Camada 1">
    <path class="cls-1" d="M337.21,265.91C-68.08,627.49-104.44,1187.16,208.74,1655.6c-10.01-74.29-24.29-233.34,11.82-368.6,24.71-92.52,71.98-183.92,81.96-192.73C262.84,465.66,987.38,74.52,1483.07,477.25c499.59,405.92,238.23,1239.17-407.69,1273.97-155,8.34-387.7-34.11-495.03-155.84-85.05-96.49-67.31-247.32-5.93-349.7,111.69-186.37,394.13-159.87,500.84-365.34-47.76,287.44-466.24,213.06-476.75,527.77-1.46,43.6,26.8,97.39,27.68,113.9,480.35,32.13,671.12-417.72,513.23-825.02-228.53,245.44-685.17,152.93-797.41,531.69,0,0-39.14,96.87-41.07,240.78-1.15,86.02,19.24,220.74,56.72,320.64,21.19,56.5,124.81,216.44,127.3,220.28,105.71,133.97,244.2,292.48,376.98,453.41,47.15,57.16,128.66,88.18,166.63,88.23,43.36.07,118.38-26.36,169.91-86.46,88.25-102.92,176.07-206.25,261.92-311.03,12.32-15.05,24.45-30.66,36.65-45.81,203.09-252.39,501.74-574.56,548.59-904.41C2183,237.15,1062.02-380.68,337.21,265.91Z"/>
  </g>
</svg>