<?xml version="1.0" encoding="UTF-8"?>
<svg xmlns="http://www.w3.org/2000/svg" viewBox="0 0 1704.36 1394.82">
  <defs>
    <style>
      .cls-1, .cls-2 {
        fill: #8abd4d;
      }

      .cls-3 {
        fill: #f5e0cd;
        mix-blend-mode: multiply;
        opacity: .25;
      }

      .cls-4 {
        fill: #b0c98f;
      }

      .cls-5 {
        fill: #401e1e;
      }

      .cls-5, .cls-2, .cls-6, .cls-7 {
        fill-rule: evenodd;
      }

      .cls-8, .cls-6 {
        stroke: #452916;
      }

      .cls-8, .cls-6, .cls-9, .cls-10, .cls-11, .cls-12, .cls-13, .cls-14, .cls-15, .cls-16 {
        fill: none;
        stroke-linecap: round;
        stroke-linejoin: round;
      }

      .cls-8, .cls-6, .cls-13 {
        stroke-width: 4.4px;
      }

      .cls-17 {
        fill: #fff;
      }

      .cls-9 {
        stroke-width: 3.06px;
      }

      .cls-9, .cls-13 {
        stroke: #1f3d31;
      }

      .cls-18 {
        fill: #88b059;
      }

      .cls-19 {
        isolation: isolate;
      }

      .cls-20 {
        fill: #4f261f;
      }

      .cls-21 {
        fill: #703a32;
      }

      .cls-22 {
        fill: #c5daa8;
      }

      .cls-23, .cls-7 {
        fill: #ad4e40;
      }

      .cls-10 {
        stroke: #3a8266;
      }

      .cls-10, .cls-14 {
        stroke-width: 3.65px;
      }

      .cls-11 {
        stroke: #6e352b;
        stroke-width: 4.53px;
      }

      .cls-12 {
        stroke: #401e1e;
        stroke-width: 4.95px;
      }

      .cls-24 {
        fill: #3a8266;
      }

      .cls-14 {
        stroke: #123628;
      }

      .cls-25 {
        fill: #bed99d;
      }

      .cls-26 {
        fill: #86ab55;
      }

      .cls-15 {
        stroke: #2a5241;
        stroke-width: 4.19px;
      }

      .cls-16 {
        stroke: #fff;
        stroke-width: 2.56px;
      }

      .cls-27 {
        fill: #516935;
      }
    </style>
  </defs>
  <g class="cls-19">
    <g id="Camada_2" data-name="Camada 2">
      <g id="image">
        <path class="cls-3" d="M843.21,74.37c-135.01,72.88-168.16,167.33-266.52,317.03C325.7,773.37,18.12,669.79.49,926.08c-17.63,256.28,444.43,573.38,767.85,191.84,236.4-278.88,561.08,277.3,871.05-252.74,244.94-418.84-242.54-1089.68-796.18-790.81Z"/>
        <path class="cls-22" d="M614.47,718.49c-59.8,29.71-81.48,73.19-89.22,103.79-4.77-40.15-11.33-78.17-18.56-112.77,114.29-51.2,78.99-136.74,78.99-136.74-57.4,29.84-78.78,71.95-86.58,102.5-.04-.15-.07-.31-.11-.47-10.93-46.42-23.21-88.4-34.63-123.55,109.16-73.05,56.52-152.79,56.52-152.79-55.33,43.97-65.68,94.11-65.67,125.5-12.74-36.83-23.45-63.23-28.52-75.28-16.41-108.52-101.78-129.49-101.78-129.49,2.81,102.53,58.08,126.35,86.2,131.83,4.01,9.36,15.72,37.47,29.97,78.76-69.57-56.56-138.28-30.04-138.28-30.04,62.19,84.14,122.29,69.88,147.66,58.11,11.16,34.47,23.1,75.47,33.75,120.76,1.11,4.7,2.2,9.51,3.29,14.38-58.22-76.13-135.22-62.43-135.22-62.43,48.66,102.19,116.9,90.88,139.79,83.55,7.55,36.34,14.34,76.47,19.04,118.82-56.49-72.81-131.06-60.95-131.06-60.95,44,96.96,111.48,92.33,137.98,85.87,8.02,91.47,5.11,197.18-20.97,291.07-1.13,4.06-2.74,4.04,1.32,5.17.81.23,1.63.31,2.43.27,3.19-.16,6.06-2.33,6.97-5.58,26.86-96.71,29.36-199.55,20.94-293.25,120.29-48.76,85.76-137.03,85.76-137.03Z"/>
        <path class="cls-23" d="M1440.37,541.34c-5.29-1.84-11.87-2.39-18.81,1.02-.17-5.07-3.28-9.83-8.41-11.61-11.29-3.93-28.43-2.22-42.45,32.08l-57.84,69.45-71.72,76.5,4.91,32.54-37.96-8.39c-11.82,75.58,38.49,109.29,57.15,135.59l53.95.51c17.65.17,34.57-6.98,46.76-19.75l5.23-5.48c14.84-22.62,25.83-47.47,32.62-73.54l25.86-50.97c2.61-5.15,3.46-11.02,2.39-16.7-1.36-7.22-3.47-17.85-5.83-28.03l4.17-8.21c1.37-2.71,1.82-5.78,1.27-8.76-2.04-11.12-7.5-39.52-12.44-53.64l28.35-44.97c3.29-6.85-.02-15.14-7.2-17.63Z"/>
        <path class="cls-20" d="M584.68,661.82s5.09,9.8-9.81,27.07c-16.27,18.85-21.94,55.85-10.18,70.54,11.76,14.69,9.26,27.84-9.85,45.28-19.11,17.44-2.31,48.56-2.31,48.56l133.41-16.54,6.21-150.28-86.39-57.95-21.09,33.31Z"/>
        <path class="cls-20" d="M898.16,851.18c11.49-.13,16.73-14.48,7.95-21.9-10.65-8.99-20.02-19.18-19.92-27.12.24-18.33,24.34-10,35.51-30.64s-11.68-31.9-8.44-53.18,18.55-11.46,15.52-43.06-20.36-32.29-16.95-49.99c3.41-17.7-10.07-31.33-16-39.37-5.93-8.04-66.24-69.4-66.24-69.4l-57.83,18.18-11.99,247.74,15.6,70.11,122.79-1.38Z"/>
        <path class="cls-7" d="M1230.04,1177.38c30.43-33.66,43.8-67.43,68.65-142.93l71.17-274.45-103.62-20.58-163.09,294.86,126.89,143.09Z"/>
        <path class="cls-23" d="M765.51,915.95s241.51,278.72,268.54,297.57c27.04,18.85,120.22,78.86,206.25-48.13l-146.97-170.97-165.03-175.54-162.79,97.07Z"/>
        <g>
          <path class="cls-25" d="M472.94,1075.49s-8.97-310.18-466.21-306.96c0,0,99.07,427.96,466.21,306.96Z"/>
          <path class="cls-4" d="M593.51,1116.68s133.19-436.09-455.91-643.8c0,0-72.36,641.92,455.91,643.8Z"/>
          <path class="cls-26" d="M521.36,1024.24c-.26.66-.71,1.27-1.34,1.73-1.57,1.15-3.64.91-4.61-.53l-310.66-459.11c-.98-1.45-.5-3.55,1.07-4.69,1.57-1.15,3.64-.91,4.61.53l310.66,459.11c.59.87.65,1.97.26,2.96Z"/>
          <path class="cls-26" d="M287.8,676.08c-.54,1.4-1.92,2.43-3.44,2.46-1.84.03-3.18-1.45-3-3.29l10.75-107.27c.18-1.82,1.82-3.36,3.67-3.39,1.84-.03,3.18,1.45,3,3.29l-10.75,107.27c-.03.32-.11.64-.23.94Z"/>
          <path class="cls-26" d="M355.51,785.49c-.61,1.57-2.25,2.63-3.89,2.43-1.8-.22-2.91-1.88-2.48-3.72l35.85-152.09c.43-1.85,2.24-3.13,4.04-2.92,1.8.22,2.91,1.88,2.48,3.72l-35.85,152.09c-.04.17-.09.33-.15.49Z"/>
          <path class="cls-26" d="M287.8,676.08c-.59,1.53-2.17,2.58-3.78,2.44l-115.97-10.39c-1.81-.16-2.98-1.78-2.6-3.62.38-1.84,2.15-3.2,3.96-3.04l115.97,10.39c1.81.16,2.98,1.78,2.6,3.62-.04.2-.1.4-.18.59Z"/>
          <path class="cls-26" d="M355.51,785.49c-.57,1.47-2.06,2.52-3.63,2.45l-154.04-6.45c-1.83-.08-3.07-1.63-2.78-3.48.28-1.85,2-3.28,3.83-3.2l154.04,6.45c1.83.08,3.07,1.63,2.78,3.48-.04.26-.11.51-.2.75Z"/>
          <path class="cls-26" d="M430.35,901.45c-.57,1.47-2.06,2.52-3.63,2.45l-154.04-6.45c-1.83-.08-3.07-1.63-2.78-3.48.28-1.85,2-3.28,3.83-3.2l154.04,6.45c1.83.08,3.07,1.63,2.78,3.48-.04.26-.11.51-.2.75Z"/>
          <path class="cls-26" d="M433.45,887.3c-.61,1.57-2.25,2.63-3.89,2.43-1.8-.22-2.91-1.88-2.48-3.72l35.85-152.09c.42-1.84,2.24-3.14,4.04-2.92,1.8.22,2.91,1.88,2.48,3.72l-35.85,152.09c-.04.17-.09.33-.15.49Z"/>
        </g>
        <path class="cls-10" d="M1486.82,510.32c10.77-17.05,17.01-37.26,17.01-58.92,0-34.78-16.07-65.8-41.19-86.05"/>
        <polygon class="cls-24" points="1465.57 380.4 1456.6 363.15 1475.81 365.43 1465.57 380.4"/>
        <path class="cls-10" d="M1145.7,396.34c-10.77,17.05-17.01,37.26-17.01,58.92,0,34.78,16.07,65.8,41.19,86.05"/>
        <polygon class="cls-24" points="1166.95 526.26 1175.92 543.51 1156.71 541.23 1166.95 526.26"/>
        <path class="cls-2" d="M916.02,1031.43c-1.6-2.11,143.87-139.92,143.87-139.92,0,0-180.43-146.62-233.76-134.56l89.9,274.48Z"/>
        <path class="cls-2" d="M826.12,756.94l-141.21-8.1-38.97,2.2-85.59,23.79c-50.77,19.32-87.92,68.34-93.75,110.83,0,0-73.52,303.42-88.24,384.49,206.51,50.77,494.64,55.25,564.65-16.59,5.08-350.67-21.57-376.35-116.88-496.62Z"/>
        <path class="cls-23" d="M769.12,753.67s63.89,105.04,2.27,105.5c-61.62.46-125.44-108.13-125.44-108.13l44.29-19.11,78.88,21.74Z"/>
        <path class="cls-7" d="M402.28,1372.39c42.3,16.41,78.62,16.84,158.02,13.1l281.77-31.5-17.77-104.14-333.65-47.08-88.36,169.61Z"/>
        <path class="cls-23" d="M480.64,845.14s-174.14,325.1-182.09,357.08c-7.95,31.98-30.74,140.45,118.59,175.48l107.23-198.32,105.05-216.82-148.79-117.41Z"/>
        <path class="cls-2" d="M486.82,834.91s-77.66,101.65-104.7,148.8l196.19,148.8,123.68-160.39-215.16-137.2Z"/>
        <line class="cls-13" x1="564.18" y1="1111.42" x2="600.52" y2="1023.67"/>
        <line class="cls-13" x1="939.51" y1="1064.53" x2="936.13" y2="982.81"/>
        <g>
          <path class="cls-23" d="M1061.07,1368.19l-4.65-7.65c4.35-2.12,7.99-5.98,8.32-14.34.24-6.12-1.63-12.16-4.91-17.33l-38.92-61.38c-8.5-13.4-21.62-23.17-36.88-27.51-22.31-6.35-55.36-13.52-79.33-9.01-32.65.64-81.18,8.52-118.1,21.84,0,0-12.13,57.01-4.17,90.16,4.43,18.45,21.11,27.54,37.82,31.98,18.54,4.93,38.12,4.29,56.62-.77l48.88-13.37c10.46,7.64,20.51,15.48,26.27,21.6,19.07,20.23,34.57-4.59,34.98-5.27.52.44,1.08.93,1.58,1.34,27.77,23,40.31,12.51,44.51,6.75.24.27.52.58.75.84,10.88,12.02,19.18,9.75,24.72,4.54,6.12-5.74,6.87-15.24,2.51-22.41Z"/>
          <path class="cls-6" d="M940.22,1259.73l28.37,8.58c16.38,4.96,30.48,15.54,39.82,29.89l28.83,44.32"/>
          <path class="cls-6" d="M918.65,1286.13l15.08,2.91c15.93,3.08,30.38,11.41,41.02,23.65l40.29,46.35"/>
          <path class="cls-6" d="M985.23,1367.5l-35.58-33.73c-11.92-11.3-27.31-18.22-43.67-19.64l-15.16-1.31"/>
        </g>
        <path class="cls-23" d="M689.33,796.66l68.61,5.62,19.71-145.41-86.69-5.24-23.31,92.63c-3.05,16.04,8.2,51.58,21.68,52.4Z"/>
        <path class="cls-23" d="M664.4,660.79c24.46,58.76,68.08,72.32,110.27,61.29,48.36-12.65,36.23-56.07,31.69-94.31-1.4-11.79-2.25-58.03-7.28-69.42-21.33-48.34-68.52-38.38-108.41-20.77-39.89,17.6-46.56,74.43-26.26,123.22Z"/>
        <path class="cls-21" d="M720.37,707.04l45.42,38.44,3.2-22.45s-17.11,4.79-48.62-15.99Z"/>
        <path class="cls-17" d="M774.82,686.66h0c-8.16,1.41-16.3-6.26-18.17-17.13l-.18-1.02,25.37-3.26c1.13,6.71-.69,19.63-7.03,21.41Z"/>
        <path class="cls-8" d="M779.86,654.56c1.35-.2,7.31-4.6,8.12-5.48,1.92-2.07,2.15-5.22.95-7.77l-3.64-7.7-5.7-12.06s-7.94-15.66,1.61-22.07"/>
        <path class="cls-5" d="M752.94,598.62h-21.91c-2.6,0-4.73-2.13-4.73-4.73h0c0-2.6,2.13-4.73,4.73-4.73h21.91c2.6,0,4.73,2.13,4.73,4.73h0c0,2.6-2.13,4.73-4.73,4.73Z"/>
        <path class="cls-5" d="M799.88,595.44l-13.5.06c-2.6.01-4.74-2.11-4.75-4.71h0c-.01-2.6,2.11-4.74,4.71-4.75l13.5-.06c2.6-.01,4.74,2.11,4.75,4.71h0c.01,2.6-2.11,4.74-4.71,4.75Z"/>
        <path class="cls-5" d="M757.19,625.42c.93,5.35-.55,10.06-3.29,10.54-2.74.48-5.71-3.47-6.64-8.82-.93-5.35.55-10.06,3.29-10.54,2.74-.47,5.71,3.47,6.64,8.82Z"/>
        <path class="cls-5" d="M803.94,617.32c.93,5.35-.55,10.06-3.29,10.54-2.74.47-5.71-3.47-6.64-8.82-.93-5.35.55-10.06,3.29-10.54,2.74-.47,5.71,3.47,6.64,8.82Z"/>
        <line class="cls-8" x1="510.22" y1="1205.54" x2="460.93" y2="1200.35"/>
        <circle class="cls-14" cx="1425.52" cy="1049.67" r="9.26"/>
        <circle class="cls-14" cx="949.38" cy="252.48" r="9.26" transform="translate(485.53 1118.46) rotate(-76.72)"/>
        <circle class="cls-14" cx="86.47" cy="1132.5" r="9.26" transform="translate(-775.47 392.84) rotate(-45)"/>
        <path class="cls-20" d="M692.15,546.23l-22.71-21.96s-15.13-40.86,13.82-53.58c28.95-12.72,41.03.76,62.02-10.91,41.31-22.98,64.5.04,69.65,12.8,2.29,5.68,13.59,13.59,28.01,14.41s22.85,27.93,20.77,36.14c-2.08,8.22,20.39,21.96,29.98,31.18s15.68,32.86,2.13,31.62c-13.54-1.24-52.37-1.31-74.69-21.34-16.07-14.42-22.21,19.57-68.37-20.74-7.73-6.75-18.27,7.7-30.71,12.23-3.78,1.37-13.96-18.47-29.92-9.85Z"/>
        <path class="cls-20" d="M669.44,524.27c6.09-47.38-57.34-13.86-56.78.99.86,23.02-12.7,24.64-13.16,44.41-.46,19.77-12.32,16.98-9.01,39.32,1.78,12.04-4.26,26.21-10.2,36.7-4.39,7.76,1.54,27.9-11.19,58.7-7.61,18.42,69.91-33.58,86.12-40.66,25.48-11.13-.66-49.31,16.86-62.56,17.52-13.25,4.84-27.74,14.11-45.87,6.7-13.11,11.85-13.36,14.18-12.49l-30.94-18.53Z"/>
        <path class="cls-11" d="M907.21,628.5s-26.4,3.47-31.73-20.69c-5.33-24.16-26.06-22.7-35.95-27.42-9.89-4.72-10.84-10.15-10.84-10.15"/>
        <path class="cls-11" d="M681.71,531.62c-1.3.29-15.99-24.77-15.99-24.77"/>
        <path class="cls-11" d="M655.13,568.81s-6.84,26.07-20.65,33.25"/>
        <path class="cls-23" d="M650.75,664.64c11.91,12.51,30.05,16.3,40.52,8.45,10.47-7.84,9.3-24.34-2.6-36.85-11.91-12.51-30.05-16.3-40.52-8.45-10.47,7.84-9.3,24.34,2.6,36.85Z"/>
        <path class="cls-8" d="M655.76,634.25c15.65-2.08,27.38,20.88,27.38,20.88,0,0-8.77-5.67-14.78-2.15-6.01,3.53-.47,11.3-.47,11.3"/>
        <path class="cls-12" d="M1263.39,697.6s1.9,11.4,26.92,46.14c19.95,27.71,4.09,63.79,4.09,63.79"/>
        <line class="cls-12" x1="1376.55" y1="656.39" x2="1345.35" y2="696.52"/>
        <line class="cls-12" x1="1425.52" y1="671.54" x2="1404.41" y2="635.94"/>
        <path class="cls-12" d="M1392.45,631.72s-3.45-22.37,2.42-29.24"/>
        <path class="cls-18" d="M1329.81,740.21h-18.72c-11.43,0-20.78-9.35-20.78-20.78h0c0-11.43,9.35-20.78,20.78-20.78h18.72c11.43,0,20.78,9.35,20.78,20.78h0c0,11.43-9.35,20.78-20.78,20.78Z"/>
        <path class="cls-17" d="M1452.19,460.81c0-67.37-59.43-121.98-132.74-121.98s-132.74,54.61-132.74,121.98c0,36.89,17.82,69.95,45.98,92.32,15.41,16.94,22.45,37.78,25.66,52.85,3.11,14.6,13.61,26.42,27.73,31.27,22.87,7.86,44.93,8.82,65.98.9,13.36-5.03,23.15-16.65,26-30.63,2.88-14.09,9.64-34.4,25.5-51.83.45-.5.86-.99,1.24-1.46,28.97-22.38,47.39-55.92,47.39-93.42Z"/>
        <path class="cls-18" d="M1280.97,643.35h79.8c4.93,0,8.92,4,8.92,8.92v44.33c0,15.81-12.84,28.65-28.65,28.65h-40.34c-15.81,0-28.65-12.84-28.65-28.65v-44.33c0-4.93,4-8.92,8.92-8.92Z"/>
        <path class="cls-18" d="M1363.85,672.95h-87.23c-13.75,0-24.9-11.15-24.9-24.9h0c0-13.75,11.15-24.9,24.9-24.9h87.23c13.75,0,24.9,11.15,24.9,24.9h0c0,13.75-11.15,24.9-24.9,24.9Z"/>
        <polygon class="cls-27" points="1369.69 672.26 1369.69 693.63 1310.1 672.95 1369.69 672.26"/>
        <path class="cls-18" d="M1363.85,708.18h-87.23c-13.75,0-24.9-11.15-24.9-24.9h0c0-13.75,11.15-24.9,24.9-24.9h87.23c13.75,0,24.9,11.15,24.9,24.9h0c0,13.75-11.15,24.9-24.9,24.9Z"/>
        <line class="cls-9" x1="1264.7" y1="663.68" x2="1363.49" y2="663.68"/>
        <line class="cls-9" x1="1294.72" y1="706.67" x2="1367.33" y2="706.67"/>
        <path class="cls-23" d="M1208.09,732.93c5.96-24.25,3.55-24.89,8.06-47.95,5.28-27.01,6.93-57.78,10.67-70.24,1.02-3.38,6.69-8.22,10.43-7.07,9.83,3,16.54,8.13,20.1,52.15.14,1.73.51,18.52.16,33.6l24.87,76.06-74.3-36.56Z"/>
        <path class="cls-12" d="M1395.09,727.2s10.39-25.25,10.8-27.28c.41-2.03-7.05-15.22-7.05-15.22,0,0-20.02-30.51-6.18-48.94"/>
        <line class="cls-8" x1="1112.73" y1="1016.98" x2="1090.29" y2="1049.67"/>
        <g>
          <path class="cls-16" d="M818.49,601.65c-7.26-.41-17.4-.56-29.57,4.19,0,0-1.72,41.11,20.5,36.35,15.6-3.34,17.11-21.62,16.63-32.21-.21-4.51-3.47-8.1-7.56-8.33Z"/>
          <path class="cls-16" d="M766.08,608.4s-20.72-1.9-43.73,3.83c-5.44,1.35-8.83,7.22-7.65,13.11,2.25,11.23,9.66,26.82,33.66,22.77,30.44-5.15,17.72-39.7,17.72-39.7Z"/>
          <path class="cls-16" d="M766.08,608.4s12.56-4.5,21.86-1.59"/>
          <line class="cls-16" x1="672.63" y1="613.49" x2="717.93" y2="614.68"/>
        </g>
        <g>
          <path class="cls-1" d="M1323.53,524.73s14.98-76.95-77.77-80.16c0,0,1.49,68.26,77.77,80.16Z"/>
          <path class="cls-1" d="M1326.51,524.57s66.13-2.04,82.9-79.82c0,0-93.64,8.88-82.9,79.82Z"/>
          <line class="cls-15" x1="1326.87" y1="602.48" x2="1325.65" y2="476.28"/>
        </g>
      </g>
    </g>
  </g>
</svg>