<?xml version="1.0" encoding="UTF-8"?>
<svg id="Camada_1" data-name="Camada 1" xmlns="http://www.w3.org/2000/svg" xmlns:xlink="http://www.w3.org/1999/xlink" viewBox="0 0 1920 504.9">
  <defs>
    <style>
      .cls-1 {
        fill: #029734;
      }

      .cls-2 {
        fill: #75b51a;
      }

      .cls-3 {
        mask: url(#mask);
      }

      .cls-4 {
        fill: #05280f;
        opacity: .3;
      }

      .cls-5 {
        fill: url(#Gradiente_sem_nome_122);
      }
    </style>
    <linearGradient id="Gradiente_sem_nome_122" data-name="Gradiente sem nome 122" x1="319.65" y1="231.84" x2="33.12" y2="293.96" gradientUnits="userSpaceOnUse">
      <stop offset="0" stop-color="#8fd418"/>
      <stop offset=".5" stop-color="#099c32"/>
    </linearGradient>
    <filter id="luminosity-noclip" x="118" y="-8596.2" width="39.64" height="32766" color-interpolation-filters="sRGB" filterUnits="userSpaceOnUse">
      <feFlood flood-color="#fff" result="bg"/>
      <feBlend in="SourceGraphic" in2="bg"/>
    </filter>
    <mask id="mask" x="118" y="-8596.2" width="39.64" height="32766" maskUnits="userSpaceOnUse"/>
  </defs>
  <g>
    <path class="cls-1" d="M475.06,329.75c.47,9.51,2.7,18.43,6.69,26.76,3.98,8.33,9.21,15.55,15.7,21.67,6.48,6.13,14,10.97,22.56,14.54s17.66,5.35,27.29,5.35c5.47,0,10.88-.62,16.23-1.87,5.35-1.25,10.43-3,15.25-5.26,4.82-2.26,9.28-4.99,13.38-8.21s7.7-6.84,10.79-10.88c1.9-1.78,3.8-2.38,5.71-1.78.95.36,1.72,1.01,2.32,1.96,1.07.95,1.69,2.23,1.87,3.83s-.51,3.12-2.05,4.55c-7.37,8.56-16.41,15.52-27.11,20.87-10.7,5.35-22.83,8.03-36.39,8.03-11.77,0-22.8-2.23-33.09-6.69-10.29-4.46-19.26-10.52-26.93-18.19-7.67-7.67-13.73-16.68-18.19-27.02-4.46-10.35-6.69-21.41-6.69-33.18s2.23-22.8,6.69-33.09c4.46-10.28,10.52-19.26,18.19-26.93,7.67-7.67,16.65-13.73,26.93-18.19,10.28-4.46,21.32-6.69,33.09-6.69s22.8,2.23,33.09,6.69c10.28,4.46,19.26,10.52,26.93,18.19,7.67,7.67,13.76,16.65,18.28,26.93,4.52,10.29,6.78,21.26,6.78,32.91,0,1.55-.51,2.88-1.52,4.01-1.01,1.13-2.35,1.7-4.01,1.7h-151.8ZM620.61,319.76c-.48-9.63-2.74-18.67-6.78-27.11-4.04-8.44-9.34-15.79-15.88-22.03-6.54-6.24-14.15-11.18-22.83-14.8-8.68-3.63-17.9-5.44-27.65-5.44s-19.12,1.81-27.74,5.44c-8.62,3.63-16.2,8.59-22.74,14.89-6.54,6.3-11.77,13.65-15.7,22.03s-6.13,17.39-6.6,27.02h145.91Z"/>
    <path class="cls-1" d="M659.32,323.15c0,.24-.12.6-.36,1.07.24.24.36.48.36.71,0,9.63,1.81,18.85,5.44,27.65,3.63,8.8,8.62,16.5,14.98,23.1,6.36,6.6,13.88,11.86,22.56,15.79,8.68,3.92,18.07,5.89,28.18,5.89,9.28.12,18.04-1.34,26.31-4.37,8.26-3.03,15.72-7.7,22.39-14,1.31-1.07,2.7-1.93,4.19-2.59,1.49-.65,3.12-.15,4.91,1.52,1.31,1.19,1.93,2.62,1.87,4.28-.06,1.67-.74,3.21-2.05,4.64-7.02,7.13-15.55,12.64-25.6,16.5-10.05,3.86-20.42,5.8-31.13,5.8-11.54,0-22.39-2.17-32.55-6.51-10.17-4.34-19.03-10.28-26.58-17.84-7.55-7.55-13.53-16.41-17.93-26.58-4.4-10.17-6.6-21.02-6.6-32.55,0-.12.03-.33.09-.62.06-.29.09-.56.09-.8s-.03-.45-.09-.62c-.06-.18-.09-.38-.09-.62,0-11.53,2.2-22.41,6.6-32.64,4.4-10.23,10.37-19.14,17.93-26.76,7.55-7.61,16.41-13.65,26.58-18.1,10.17-4.46,21.02-6.69,32.55-6.69,10.7,0,21.08,1.93,31.13,5.8,10.05,3.87,18.58,9.36,25.6,16.5,1.31,1.43,1.96,2.97,1.96,4.64s-.65,3.09-1.96,4.28c-1.67,1.55-3.24,2.02-4.73,1.43-1.49-.59-2.88-1.37-4.19-2.32-6.54-6.18-13.97-10.85-22.3-14-8.33-3.15-17.12-4.67-26.4-4.55-9.87,0-19.15,1.96-27.83,5.89-8.68,3.92-16.23,9.19-22.65,15.79-6.42,6.6-11.48,14.3-15.16,23.1-3.69,8.8-5.53,18.08-5.53,27.83Z"/>
    <path class="cls-1" d="M805.58,324.4c0-11.89,2.23-23.01,6.69-33.36,4.46-10.35,10.55-19.35,18.28-27.02,7.73-7.67,16.74-13.73,27.02-18.19,10.28-4.46,21.32-6.69,33.09-6.69s22.83,2.23,33.18,6.69c10.35,4.46,19.35,10.52,27.02,18.19s13.7,16.68,18.1,27.02c4.4,10.35,6.6,21.47,6.6,33.36s-2.2,22.8-6.6,33.09c-4.4,10.29-10.44,19.3-18.1,27.02-7.67,7.73-16.68,13.82-27.02,18.28-10.35,4.46-21.41,6.69-33.18,6.69s-22.8-2.23-33.09-6.69c-10.29-4.46-19.3-10.55-27.02-18.28-7.73-7.73-13.82-16.74-18.28-27.02-4.46-10.28-6.69-21.32-6.69-33.09ZM817.17,324.4c0,9.99,1.9,19.44,5.71,28.36,3.8,8.92,9.01,16.71,15.61,23.37,6.6,6.66,14.36,11.95,23.28,15.88,8.92,3.92,18.55,5.89,28.9,5.89s20.01-1.96,28.99-5.89c8.98-3.92,16.77-9.21,23.37-15.88,6.6-6.66,11.77-14.45,15.52-23.37s5.62-18.37,5.62-28.36-1.9-19.8-5.71-28.72c-3.81-8.92-9.01-16.71-15.61-23.37-6.6-6.66-14.36-11.92-23.28-15.79-8.92-3.86-18.55-5.8-28.9-5.8s-19.83,1.93-28.81,5.8c-8.98,3.87-16.77,9.13-23.37,15.79-6.6,6.66-11.8,14.45-15.61,23.37-3.81,8.92-5.71,18.49-5.71,28.72Z"/>
  </g>
  <g>
    <path class="cls-2" d="M1188.06,180.99c7.61,7.61,13.5,16.47,17.66,26.58,4.16,10.11,6.24,20.75,6.24,31.93-.24,11.18-2.5,21.71-6.78,31.57-4.28,9.87-10.17,18.5-17.66,25.86-7.49,7.38-16.18,13.2-26.04,17.48-9.87,4.28-20.51,6.42-31.93,6.42h-77.06v66c0,5.47-1.96,10.23-5.89,14.27-3.92,4.05-8.74,6.06-14.45,6.06s-10.23-2.02-14.27-6.06c-4.05-4.04-6.07-8.8-6.07-14.27v-209.77c0-5.71,2.02-10.58,6.07-14.63s8.8-6.06,14.27-6.06h97.39c11.18,0,21.82,2.14,31.93,6.42,10.11,4.28,18.96,10.35,26.58,18.19ZM1159.16,209.53c-8.09-8.08-17.96-12.13-29.61-12.13h-77.06v82.41h77.06c5.71,0,11.06-1.07,16.05-3.21,4.99-2.14,9.39-5.05,13.2-8.74,3.8-3.68,6.78-7.97,8.92-12.84,2.14-4.87,3.21-10.17,3.21-15.88,0-11.42-3.92-21.28-11.77-29.61Z"/>
    <path class="cls-2" d="M1311.14,227.01c12.6,0,24.38,2.38,35.32,7.13,10.94,4.76,20.45,11.18,28.54,19.26,8.08,8.09,14.5,17.6,19.26,28.54,4.75,10.94,7.14,22.71,7.14,35.32s-2.38,24.02-7.14,34.96c-4.76,10.94-11.18,20.46-19.26,28.54-8.09,8.09-17.6,14.51-28.54,19.26-10.94,4.76-22.71,7.13-35.32,7.13s-24.03-2.38-34.96-7.13c-10.94-4.75-20.46-11.18-28.54-19.26-8.09-8.08-14.51-17.6-19.26-28.54-4.76-10.94-7.13-22.59-7.13-34.96s2.37-24.38,7.13-35.32c4.75-10.94,11.18-20.45,19.26-28.54,8.08-8.08,17.6-14.5,28.54-19.26,10.94-4.75,22.59-7.13,34.96-7.13ZM1311.14,366.5c6.9,0,13.32-1.3,19.26-3.92,5.94-2.61,11.11-6.12,15.52-10.52s7.9-9.63,10.52-15.7c2.61-6.07,3.92-12.42,3.92-19.09s-1.31-13.32-3.92-19.26c-2.62-5.94-6.13-11.12-10.52-15.52-4.4-4.4-9.58-7.9-15.52-10.52-5.95-2.61-12.37-3.92-19.26-3.92s-13.02,1.31-19.09,3.92c-6.07,2.62-11.3,6.13-15.7,10.52s-7.91,9.58-10.52,15.52c-2.62,5.95-3.92,12.37-3.92,19.26s1.3,13.02,3.92,19.09c2.61,6.06,6.12,11.3,10.52,15.7,4.4,4.4,9.63,7.91,15.7,10.52,6.06,2.62,12.42,3.92,19.09,3.92Z"/>
    <path class="cls-2" d="M1448.12,209.17c-7.62,0-14.04-2.61-19.26-7.85-5.23-5.23-7.85-11.65-7.85-19.26s2.61-13.97,7.85-19.09c5.23-5.11,11.65-7.67,19.26-7.67s13.67,2.56,18.91,7.67c5.23,5.12,7.85,11.48,7.85,19.09s-2.62,14.04-7.85,19.26-11.54,7.85-18.91,7.85ZM1448.12,227.01c5.47,0,10.22,2.02,14.27,6.06,4.04,4.05,6.06,8.92,6.06,14.63v139.13c0,5.47-2.02,10.23-6.06,14.27-4.05,4.05-8.8,6.06-14.27,6.06s-10.52-2.02-14.45-6.06c-3.92-4.04-5.89-8.8-5.89-14.27v-139.13c0-5.71,1.96-10.58,5.89-14.63,3.92-4.04,8.74-6.06,14.45-6.06Z"/>
    <path class="cls-2" d="M1590.1,227.01c12.6,0,24.38,2.38,35.32,7.13,10.94,4.76,20.45,11.18,28.54,19.26,8.08,8.09,14.5,17.6,19.26,28.54,4.75,10.94,7.13,22.71,7.13,35.32v69.57c0,5.47-2.02,10.23-6.06,14.27-4.05,4.05-8.92,6.06-14.63,6.06s-10.23-2.02-14.27-6.06c-4.05-4.04-6.06-8.8-6.06-14.27v-69.57c0-6.9-1.31-13.32-3.92-19.26-2.62-5.94-6.13-11.12-10.52-15.52-4.4-4.4-9.58-7.9-15.52-10.52-5.95-2.61-12.37-3.92-19.26-3.92s-13.02,1.31-19.09,3.92c-6.06,2.62-11.3,6.13-15.7,10.52s-7.91,9.58-10.52,15.52c-2.62,5.95-3.92,12.37-3.92,19.26v69.57c0,5.47-1.96,10.23-5.89,14.27-3.92,4.05-8.74,6.06-14.45,6.06s-10.23-2.02-14.27-6.06c-4.05-4.04-6.06-8.8-6.06-14.27v-69.57c0-12.6,2.37-24.38,7.13-35.32,4.75-10.94,11.18-20.45,19.26-28.54,8.08-8.08,17.6-14.5,28.54-19.26,10.94-4.75,22.59-7.13,34.96-7.13Z"/>
    <path class="cls-2" d="M1791.31,364.71c5.71,0,10.52,2.02,14.45,6.06,3.92,4.05,5.89,8.8,5.89,14.27s-1.96,10.52-5.89,14.45c-3.92,3.92-8.74,5.89-14.45,5.89h-8.92c-8.09,0-15.7-1.54-22.83-4.64-7.13-3.09-13.38-7.25-18.73-12.49-5.35-5.23-9.58-11.42-12.66-18.55-3.09-7.13-4.64-14.74-4.64-22.83v-78.84h-12.13c-5.47,0-10.23-2.02-14.27-6.06-4.05-4.04-6.07-8.8-6.07-14.27s2.02-10.58,6.07-14.63c4.04-4.04,8.8-6.06,14.27-6.06h12.13v-51.37c0-5.71,2.02-10.52,6.06-14.45,4.04-3.92,8.8-5.89,14.27-5.89s10.58,1.96,14.63,5.89c4.04,3.92,6.06,8.74,6.06,14.45v51.37h28.9c5.71,0,10.52,2.02,14.45,6.06,3.92,4.05,5.89,8.92,5.89,14.63s-1.96,10.23-5.89,14.27c-3.92,4.05-8.74,6.06-14.45,6.06h-28.9v78.84c0,5,1.72,9.22,5.17,12.67,3.45,3.45,7.67,5.17,12.67,5.17h8.92Z"/>
  </g>
  <g>
    <path class="cls-5" d="M137.28,113.08c-55.85,49.83-60.86,126.95-17.7,191.5,1.82,2.73,3.74,5.44,5.73,8.12,7.53,10.2,20.34,24.99,25.06,31.32,2.26,3.03,4.69,6.19,7.27,9.45,14.57,18.46,33.65,40.31,51.95,62.48,6.5,7.88,17.73,12.15,22.96,12.16,5.98,0,16.31-3.63,23.41-11.91,12.16-14.18,24.26-28.42,36.09-42.86,1.7-2.07,3.37-4.22,5.05-6.31,27.99-34.78,69.14-79.18,75.6-124.63C391.63,109.12,237.16,23.98,137.28,113.08ZM239,317.77c-21.36,1.15-53.43-4.7-68.22-21.47-11.72-13.3-9.28-34.08-.82-48.19,15.39-25.68,54.31-22.03,69.02-50.34-6.58,39.61-64.25,29.36-65.7,72.73-.2,6.01,3.69,13.42,3.82,15.7,66.19,4.43,92.48-57.56,70.72-113.69-31.49,33.82-94.42,21.07-109.89,73.27-2.52-2.05-4.75-11.03-5.05-13.9-.16-1.55-.29-3.09-.39-4.63-5.47-86.62,94.38-140.53,162.68-85.03,68.84,55.94,32.83,170.76-56.18,175.56Z"/>
    <g class="cls-3">
      <path class="cls-4" d="M157.64,353.48c-2.57-3.26-5.01-6.42-7.27-9.45-4.72-6.33-17.53-21.12-25.06-31.32-2-2.68-3.91-5.39-5.73-8.12-1.38-10.24-3.35-32.16,1.63-50.79,3.41-12.75,9.92-25.34,11.29-26.56.1,1.53.23,3.07.39,4.63.3,2.86,2.53,11.84,5.05,13.9,0,0-5.39,13.35-5.66,33.18-.16,11.85,2.65,30.42,7.82,44.19,2.92,7.79,17.2,29.83,17.54,30.35Z"/>
    </g>
  </g>
</svg>